# Blender v2.79 (sub 0) OBJ File: 'amontoado-bloco-planeta2.blend'
# www.blender.org
mtllib amontoado-bloco-planeta2.mtl
o Cube
v 1.134975 -1.134975 -1.134975
v 1.134975 -1.134975 1.134975
v -1.134976 -1.134975 1.134975
v -1.134975 -1.134975 -1.134976
v 1.134976 1.134975 -1.134975
v 1.134975 1.134975 1.134976
v -1.134976 1.134975 1.134975
v -1.134975 1.134975 -1.134975
vt 0.000116 0.333372
vt 0.000115 0.000116
vt 0.333372 0.000116
vt 0.333372 0.333372
vt 0.999884 0.333372
vt 0.666628 0.333372
vt 0.666628 0.000116
vt 0.999884 0.000115
vt 0.666628 0.333603
vt 0.666628 0.666859
vt 0.333372 0.666859
vt 0.333372 0.333603
vt 0.000115 0.666859
vt 0.000115 0.333603
vt 0.999884 0.333603
vt 0.999884 0.666859
vn 0.0000 -1.0000 -0.0000
vn 0.0000 1.0000 0.0000
vn 1.0000 0.0000 0.0000
vn -0.0000 -0.0000 1.0000
vn -1.0000 -0.0000 -0.0000
vn 0.0000 0.0000 -1.0000
usemtl Material
s off
f 1/1/1 2/2/1 3/3/1 4/4/1
f 5/5/2 8/6/2 7/7/2 6/8/2
f 1/9/3 5/10/3 6/11/3 2/12/3
f 2/12/4 6/11/4 7/13/4 3/14/4
f 3/3/5 7/7/5 8/6/5 4/4/5
f 5/10/6 1/9/6 4/15/6 8/16/6
o Cone.002
v 0.580762 -1.107876 -0.871206
v 0.959809 -0.953712 -0.900946
v 1.116815 -0.581526 -0.972745
v 0.959809 -0.209341 -1.044544
v 0.580761 -0.055177 -1.074285
v 0.201714 -0.209341 -1.044544
v 0.044708 -0.581526 -0.972745
v 0.201714 -0.953712 -0.900946
v 0.580762 -0.784605 -2.025444
vt 0.999928 0.513719
vt 0.480520 0.513719
vt 0.969502 0.338557
vt 0.881788 0.183917
vt 0.747062 0.067916
vt 0.581109 0.004143
vt 0.403371 0.000072
vt 0.234672 0.056178
vt 0.094775 0.165888
vt 0.000072 0.316349
vn 0.0000 -0.9629 -0.2697
vn 0.0000 -0.1894 -0.9819
vn 0.6324 -0.7057 -0.3193
vn 0.8944 -0.0847 -0.4391
vn 0.6324 0.5363 -0.5589
vn 0.0000 0.7935 -0.6085
vn -0.6324 0.5363 -0.5589
vn -0.8944 -0.0847 -0.4391
vn -0.6324 -0.7057 -0.3193
usemtl None
s 1
f 9/17/7 17/18/8 10/19/9
f 10/19/9 17/18/8 11/20/10
f 11/20/10 17/18/8 12/21/11
f 12/21/11 17/18/8 13/22/12
f 13/22/12 17/18/8 14/23/13
f 14/23/13 17/18/8 15/24/14
f 15/24/14 17/18/8 16/25/15
f 16/25/15 17/18/8 9/26/7
o Icosphere.002_Icosphere.003
v -0.031013 -0.172872 -1.183015
v -0.198910 0.348452 -1.187401
v -0.742212 0.350714 -1.256682
v -0.910103 -0.169212 -1.295115
v -0.470557 -0.492809 -1.249584
v -0.434117 -0.017812 -1.519838
v -0.340367 -0.530510 -0.999226
v -0.659711 -0.529181 -1.039948
v 0.016674 -0.036850 -0.937507
v -0.082008 -0.342457 -0.960097
v -0.340373 0.459783 -0.966846
v -0.082012 0.269578 -0.940085
v -0.918077 0.273059 -1.046698
v -0.659717 0.461113 -1.007568
v -0.918073 -0.338975 -1.066710
v -1.016759 -0.032547 -1.069288
v -0.207024 -0.385187 -1.253679
v -0.047354 0.109295 -1.217129
v -0.465385 0.417050 -1.260428
v -0.883414 0.112776 -1.323741
v -0.723738 -0.383035 -1.319569
v -0.185606 -0.105989 -1.412530
v -0.443961 -0.294043 -1.451658
v -0.284292 0.200436 -1.415108
v -0.603635 0.201765 -1.455830
v -0.702318 -0.103837 -1.478420
vt 0.411845 0.000086
vt 0.519756 0.028064
vt 0.430526 0.098647
vt 0.261703 0.159596
vt 0.321658 0.065613
vt 0.361213 0.172285
vt 0.367008 0.351679
vt 0.296152 0.265617
vt 0.409827 0.260962
vt 0.582232 0.310886
vt 0.478486 0.351679
vt 0.509187 0.242129
vt 0.609945 0.093589
vt 0.616681 0.204863
vt 0.521981 0.141813
vt 0.446547 0.183167
vt 0.164903 0.999914
vt 0.210989 0.899028
vt 0.261530 0.983084
vt 0.100577 0.909559
vt 0.148103 0.823760
vt 0.050939 0.810375
vt 0.125551 0.728308
vt 0.017173 0.704727
vt 0.088563 0.637469
vt 0.000086 0.595137
vt 0.096141 0.539682
vt 0.000087 0.484226
vt 0.088563 0.441895
vt 0.017173 0.374637
vt 0.125551 0.351056
vt 0.050939 0.268989
vt 0.148103 0.255604
vt 0.100578 0.169805
vt 0.210990 0.180336
vt 0.164904 0.079450
vt 0.261530 0.096280
vt 0.242380 0.000086
vn 0.9004 -0.2652 -0.3448
vn 0.5625 -0.6728 -0.4805
vn 0.6036 -0.1368 -0.7854
vn 0.5781 0.7355 -0.3532
vn 0.8690 0.2764 -0.4103
vn 0.4142 0.4514 -0.7904
vn -0.4649 0.7399 -0.4862
vn 0.0665 0.8672 -0.4934
vn -0.1989 0.4539 -0.8685
vn -0.7872 -0.2582 -0.5600
vn -0.7360 0.2831 -0.6149
vn -0.3883 -0.1327 -0.9119
vn 0.0566 -0.8794 -0.4726
vn -0.4294 -0.6687 -0.6070
vn 0.1076 -0.4978 -0.8605
vn 0.1265 0.0324 -0.9914
vn -0.2853 -0.9135 -0.2899
vn -0.7454 -0.5748 -0.3376
vn -0.9391 0.0266 -0.3426
vn -0.7634 0.5708 -0.3024
vn -0.2562 0.9399 -0.2256
vn 0.3123 0.9375 -0.1531
vn 0.8195 0.5642 -0.1006
vn 0.9952 0.0186 -0.0960
vn 0.8015 -0.5813 -0.1403
vn 0.3415 -0.9161 -0.2100
usemtl None_CirculoDoido.005Alpha.png.001
s 1
f 18/27/16 34/28/17 39/29/18
f 19/30/19 35/31/20 41/32/21
f 20/33/22 36/34/23 42/35/24
f 21/36/25 37/37/26 43/38/27
f 22/39/28 38/40/29 40/41/30
f 40/41/30 43/38/27 23/42/31
f 40/41/30 38/40/29 43/38/27
f 38/40/29 21/36/25 43/38/27
f 43/38/27 42/35/24 23/42/31
f 43/38/27 37/37/26 42/35/24
f 37/37/26 20/33/22 42/35/24
f 42/35/24 41/32/21 23/42/31
f 42/35/24 36/34/23 41/32/21
f 36/34/23 19/30/19 41/32/21
f 41/32/21 39/29/18 23/42/31
f 41/32/21 35/31/20 39/29/18
f 35/31/20 18/27/16 39/29/18
f 39/29/18 40/41/30 23/42/31
f 39/29/18 34/28/17 40/41/30
f 34/28/17 22/39/28 40/41/30
f 25/43/32 38/44/29 22/45/28
f 25/43/32 32/46/33 38/44/29
f 32/46/33 21/47/25 38/44/29
f 33/48/34 37/49/26 21/47/25
f 33/48/34 30/50/35 37/49/26
f 30/50/35 20/51/22 37/49/26
f 31/52/36 36/53/23 20/51/22
f 31/52/36 28/54/37 36/53/23
f 28/54/37 19/55/19 36/53/23
f 29/56/38 35/57/20 19/55/19
f 29/56/38 26/58/39 35/57/20
f 26/58/39 18/59/16 35/57/20
f 27/60/40 34/61/17 18/59/16
f 27/60/40 24/62/41 34/61/17
f 24/62/41 22/63/28 34/61/17
f 32/46/33 33/48/34 21/47/25
f 30/50/35 31/52/36 20/51/22
f 28/54/37 29/56/38 19/55/19
f 26/58/39 27/60/40 18/59/16
f 24/62/41 25/64/32 22/63/28
o Cone.001
v -0.949540 0.644717 0.961761
v -0.794922 0.268068 1.012324
v -0.705925 -0.044952 0.762471
v -0.734684 -0.110980 0.358564
v -0.864351 0.108663 0.037205
v -1.018969 0.485312 -0.013358
v -1.107966 0.798331 0.236495
v -1.079207 0.864359 0.640402
v -1.897158 -0.011813 0.633496
vt 0.969502 0.338557
vt 0.480520 0.513719
vt 0.881788 0.183917
vt 0.747062 0.067916
vt 0.581109 0.004143
vt 0.403371 0.000072
vt 0.234672 0.056178
vt 0.094775 0.165888
vt 0.000072 0.316349
vt 0.999928 0.513719
vn -0.4841 0.2851 0.8272
vn -0.9236 -0.3623 0.1250
vn -0.2261 -0.3433 0.9116
vn -0.0776 -0.8656 0.4947
vn -0.1256 -0.9757 -0.1792
vn -0.3420 -0.6093 -0.7154
vn -0.6000 0.0192 -0.7998
vn -0.7484 0.5415 -0.3829
vn -0.7005 0.6516 0.2910
usemtl None
s 1
f 44/65/42 52/66/43 45/67/44
f 45/67/44 52/66/43 46/68/45
f 46/68/45 52/66/43 47/69/46
f 47/69/46 52/66/43 48/70/47
f 48/70/47 52/66/43 49/71/48
f 49/71/48 52/66/43 50/72/49
f 50/72/49 52/66/43 51/73/50
f 51/74/50 52/66/43 44/65/42
o Icosphere.001_Icosphere.002
v 1.316007 0.062793 0.824405
v 1.268596 0.581534 0.655151
v 1.268596 0.581534 0.107444
v 1.316007 0.062793 -0.061810
v 1.345307 -0.257811 0.381297
v 1.589654 0.232375 0.381297
v 1.116002 -0.308391 0.542264
v 1.116002 -0.308391 0.220331
v 1.070911 0.184964 0.902203
v 1.098778 -0.119946 0.802719
v 1.025820 0.678319 0.542264
v 1.043043 0.489874 0.802719
v 1.043043 0.489874 -0.040124
v 1.025820 0.678319 0.220331
v 1.098778 -0.119946 -0.040124
v 1.070911 0.184964 -0.139608
v 1.376261 -0.147104 0.641748
v 1.331171 0.346251 0.802716
v 1.303303 0.651158 0.381297
v 1.331171 0.346251 -0.040121
v 1.376261 -0.147104 0.120846
v 1.519884 0.141022 0.641748
v 1.537106 -0.047424 0.381297
v 1.492017 0.445928 0.542263
v 1.492017 0.445928 0.220332
v 1.519884 0.141022 0.120847
vt 0.411845 0.000086
vt 0.519756 0.028064
vt 0.430526 0.098647
vt 0.261703 0.159596
vt 0.321658 0.065613
vt 0.361213 0.172285
vt 0.367008 0.351679
vt 0.296152 0.265617
vt 0.409827 0.260962
vt 0.582232 0.310886
vt 0.478486 0.351679
vt 0.509187 0.242129
vt 0.609945 0.093589
vt 0.616681 0.204863
vt 0.521981 0.141813
vt 0.446547 0.183167
vt 0.164903 0.999914
vt 0.210989 0.899028
vt 0.261530 0.983084
vt 0.100577 0.909559
vt 0.148103 0.823760
vt 0.050939 0.810375
vt 0.125551 0.728308
vt 0.017173 0.704727
vt 0.088563 0.637469
vt 0.000086 0.595137
vt 0.096141 0.539682
vt 0.000087 0.484226
vt 0.088563 0.441895
vt 0.017173 0.374637
vt 0.125551 0.351056
vt 0.050939 0.268989
vt 0.148103 0.255604
vt 0.100578 0.169805
vt 0.210990 0.180336
vt 0.164904 0.079450
vt 0.261530 0.096280
vt 0.242380 0.000086
vn 0.4705 -0.2345 0.8506
vn 0.5862 -0.6375 0.5000
vn 0.8619 -0.0844 0.5000
vn 0.3795 0.7613 0.5257
vn 0.4996 0.3096 0.8090
vn 0.8084 0.5010 0.3090
vn 0.3795 0.7613 -0.5257
vn 0.4461 0.8950 0.0000
vn 0.8084 0.5010 -0.3090
vn 0.4705 -0.2345 -0.8506
vn 0.4996 0.3096 -0.8090
vn 0.8619 -0.0844 -0.5000
vn 0.5267 -0.8500 0.0000
vn 0.5862 -0.6375 -0.5000
vn 0.8950 -0.4461 0.0000
vn 0.9958 0.0910 0.0000
vn 0.3048 -0.8985 -0.3160
vn 0.2741 -0.5629 -0.7797
vn 0.2194 0.0356 -0.9750
vn 0.1698 0.5784 -0.7978
vn 0.1360 0.9483 -0.2866
vn 0.1360 0.9483 0.2866
vn 0.1698 0.5784 0.7978
vn 0.2194 0.0356 0.9750
vn 0.2741 -0.5629 0.7797
vn 0.3048 -0.8985 0.3160
usemtl None_CirculoDoido.005Alpha.png.001
s 1
f 53/75/51 69/76/52 74/77/53
f 54/78/54 70/79/55 76/80/56
f 55/81/57 71/82/58 77/83/59
f 56/84/60 72/85/61 78/86/62
f 57/87/63 73/88/64 75/89/65
f 75/89/65 78/86/62 58/90/66
f 75/89/65 73/88/64 78/86/62
f 73/88/64 56/84/60 78/86/62
f 78/86/62 77/83/59 58/90/66
f 78/86/62 72/85/61 77/83/59
f 72/85/61 55/81/57 77/83/59
f 77/83/59 76/80/56 58/90/66
f 77/83/59 71/82/58 76/80/56
f 71/82/58 54/78/54 76/80/56
f 76/80/56 74/77/53 58/90/66
f 76/80/56 70/79/55 74/77/53
f 70/79/55 53/75/51 74/77/53
f 74/77/53 75/89/65 58/90/66
f 74/77/53 69/76/52 75/89/65
f 69/76/52 57/87/63 75/89/65
f 60/91/67 73/92/64 57/93/63
f 60/91/67 67/94/68 73/92/64
f 67/94/68 56/95/60 73/92/64
f 68/96/69 72/97/61 56/95/60
f 68/96/69 65/98/70 72/97/61
f 65/98/70 55/99/57 72/97/61
f 66/100/71 71/101/58 55/99/57
f 66/100/71 63/102/72 71/101/58
f 63/102/72 54/103/54 71/101/58
f 64/104/73 70/105/55 54/103/54
f 64/104/73 61/106/74 70/105/55
f 61/106/74 53/107/51 70/105/55
f 62/108/75 69/109/52 53/107/51
f 62/108/75 59/110/76 69/109/52
f 59/110/76 57/111/63 69/109/52
f 67/94/68 68/96/69 56/95/60
f 65/98/70 66/100/71 55/99/57
f 63/102/72 64/104/73 54/103/54
f 61/106/74 62/108/75 53/107/51
f 59/110/76 60/112/67 57/111/63
o Cone
v -0.128604 0.745490 1.077402
v 0.250443 0.588484 1.077402
v 0.407450 0.209436 1.077402
v 0.250443 -0.169611 1.077402
v -0.128604 -0.326618 1.077402
v -0.507651 -0.169611 1.077402
v -0.664658 0.209436 1.077402
v -0.507651 0.588483 1.077402
v -0.128604 0.209436 2.149510
vt 0.999928 0.513719
vt 0.480520 0.513719
vt 0.969502 0.338557
vt 0.881788 0.183917
vt 0.747062 0.067916
vt 0.581109 0.004143
vt 0.403371 0.000072
vt 0.234672 0.056178
vt 0.094775 0.165888
vt 0.000072 0.316349
vn 0.0000 0.8944 0.4472
vn 0.0000 0.0000 1.0000
vn 0.6324 0.6324 0.4472
vn 0.8944 0.0000 0.4472
vn 0.6324 -0.6324 0.4472
vn 0.0000 -0.8944 0.4472
vn -0.6324 -0.6324 0.4472
vn -0.8944 0.0000 0.4472
vn -0.6324 0.6324 0.4472
usemtl None
s 1
f 79/113/77 87/114/78 80/115/79
f 80/115/79 87/114/78 81/116/80
f 81/116/80 87/114/78 82/117/81
f 82/117/81 87/114/78 83/118/82
f 83/118/82 87/114/78 84/119/83
f 84/119/83 87/114/78 85/120/84
f 85/120/84 87/114/78 86/121/85
f 86/121/85 87/114/78 79/122/77
o Icosphere_Icosphere.001
v -0.006276 1.340901 0.884259
v -0.527179 1.340901 0.715004
v -0.527179 1.340901 0.167298
v -0.006276 1.340901 -0.001957
v 0.315663 1.340899 0.441151
v -0.150248 1.628847 0.441151
v 0.345163 1.107942 0.602117
v 0.345163 1.107942 0.280184
v -0.150248 1.107942 0.962056
v 0.155933 1.107942 0.862572
v -0.645659 1.107942 0.602117
v -0.456429 1.107942 0.862572
v -0.456429 1.107942 0.019730
v -0.645659 1.107942 0.280184
v 0.155933 1.107942 0.019730
v -0.150248 1.107942 -0.079755
v 0.208233 1.381800 0.701602
v -0.287178 1.381801 0.862569
v -0.593355 1.381800 0.441151
v -0.287178 1.381801 0.019732
v 0.208233 1.381800 0.180700
v -0.065624 1.551052 0.701601
v 0.123607 1.551051 0.441151
v -0.371801 1.551052 0.602116
v -0.371801 1.551052 0.280185
v -0.065624 1.551052 0.180701
vt 0.411845 0.000086
vt 0.519756 0.028064
vt 0.430526 0.098647
vt 0.261703 0.159596
vt 0.321658 0.065613
vt 0.361213 0.172285
vt 0.367008 0.351679
vt 0.296152 0.265617
vt 0.409827 0.260962
vt 0.582232 0.310886
vt 0.478486 0.351679
vt 0.509187 0.242129
vt 0.609945 0.093589
vt 0.616681 0.204863
vt 0.521981 0.141813
vt 0.446547 0.183167
vt 0.164903 0.999914
vt 0.210989 0.899028
vt 0.261530 0.983084
vt 0.100577 0.909559
vt 0.148103 0.823760
vt 0.050939 0.810375
vt 0.125551 0.728308
vt 0.017173 0.704727
vt 0.088563 0.637469
vt 0.000086 0.595137
vt 0.096141 0.539682
vt 0.000087 0.484226
vt 0.088563 0.441895
vt 0.017173 0.374637
vt 0.125551 0.351056
vt 0.050939 0.268989
vt 0.148103 0.255604
vt 0.100578 0.169805
vt 0.210990 0.180336
vt 0.164904 0.079450
vt 0.261530 0.096280
vt 0.242380 0.000086
vn 0.2764 0.4472 0.8506
vn 0.6882 0.5257 0.5000
vn 0.1625 0.8506 0.5000
vn -0.7236 0.4472 0.5257
vn -0.2629 0.5257 0.8090
vn -0.4253 0.8506 0.3090
vn -0.7236 0.4472 -0.5257
vn -0.8506 0.5257 0.0000
vn -0.4253 0.8506 -0.3090
vn 0.2764 0.4472 -0.8506
vn -0.2629 0.5257 -0.8090
vn 0.1625 0.8506 -0.5000
vn 0.8944 0.4472 0.0000
vn 0.6882 0.5257 -0.5000
vn 0.5257 0.8506 0.0000
vn 0.0000 1.0000 0.0000
vn 0.9225 0.2217 -0.3160
vn 0.5856 0.2217 -0.7797
vn -0.0154 0.2217 -0.9750
vn -0.5606 0.2217 -0.7978
vn -0.9320 0.2217 -0.2866
vn -0.9320 0.2217 0.2866
vn -0.5606 0.2217 0.7978
vn -0.0154 0.2217 0.9750
vn 0.5856 0.2217 0.7797
vn 0.9225 0.2217 0.3160
usemtl None_CirculoDoido.005Alpha.png.001
s 1
f 88/123/86 104/124/87 109/125/88
f 89/126/89 105/127/90 111/128/91
f 90/129/92 106/130/93 112/131/94
f 91/132/95 107/133/96 113/134/97
f 92/135/98 108/136/99 110/137/100
f 110/137/100 113/134/97 93/138/101
f 110/137/100 108/136/99 113/134/97
f 108/136/99 91/132/95 113/134/97
f 113/134/97 112/131/94 93/138/101
f 113/134/97 107/133/96 112/131/94
f 107/133/96 90/129/92 112/131/94
f 112/131/94 111/128/91 93/138/101
f 112/131/94 106/130/93 111/128/91
f 106/130/93 89/126/89 111/128/91
f 111/128/91 109/125/88 93/138/101
f 111/128/91 105/127/90 109/125/88
f 105/127/90 88/123/86 109/125/88
f 109/125/88 110/137/100 93/138/101
f 109/125/88 104/124/87 110/137/100
f 104/124/87 92/135/98 110/137/100
f 95/139/102 108/140/99 92/141/98
f 95/139/102 102/142/103 108/140/99
f 102/142/103 91/143/95 108/140/99
f 103/144/104 107/145/96 91/143/95
f 103/144/104 100/146/105 107/145/96
f 100/146/105 90/147/92 107/145/96
f 101/148/106 106/149/93 90/147/92
f 101/148/106 98/150/107 106/149/93
f 98/150/107 89/151/89 106/149/93
f 99/152/108 105/153/90 89/151/89
f 99/152/108 96/154/109 105/153/90
f 96/154/109 88/155/86 105/153/90
f 97/156/110 104/157/87 88/155/86
f 97/156/110 94/158/111 104/157/87
f 94/158/111 92/159/98 104/157/87
f 102/142/103 103/144/104 91/143/95
f 100/146/105 101/148/106 90/147/92
f 98/150/107 99/152/108 89/151/89
f 96/154/109 97/156/110 88/155/86
f 94/158/111 95/160/102 92/159/98
