# Blender v2.79 (sub 0) OBJ File: 'livrinho.blend'
# www.blender.org
mtllib livrinho.mtl
o Cube_Cube.003
v 2.497314 2.438428 3.129514
v 2.497314 2.070940 3.129514
v 2.497314 2.438428 0.832713
v 2.497314 2.070940 0.832713
v 5.988451 2.438428 3.129514
v 5.988451 2.070940 3.129514
v 5.988451 2.438428 0.832713
v 5.988451 2.070940 0.832713
v 2.497314 2.370627 3.129514
v 2.497314 2.370627 0.832713
v 5.988451 2.370627 0.832713
v 5.988451 2.370627 3.129514
v 2.497314 2.144254 3.129514
v 2.497314 2.144254 0.832713
v 5.988451 2.144254 0.832713
v 5.988451 2.144254 3.129514
v 2.497314 2.438428 2.899834
v 2.497314 2.070940 2.899834
v 5.988451 2.438428 2.899834
v 5.988451 2.070940 2.899834
v 5.988451 2.370627 2.899834
v 2.497314 2.370627 2.899834
v 5.988451 2.144254 2.899834
v 2.497314 2.144254 2.899834
v 2.671871 2.155573 1.036069
v 2.671871 2.359308 1.036069
v 5.813894 2.155573 1.036069
v 5.813894 2.359308 1.036069
v 2.671871 2.359308 2.896478
v 2.671871 2.155573 2.896478
v 5.813894 2.359308 2.896478
v 5.813894 2.155573 2.896478
vn -1.0000 0.0000 0.0000
vn 0.0000 0.0000 -1.0000
vn 1.0000 0.0000 0.0000
vn 0.0000 0.0000 1.0000
vn 0.0000 1.0000 0.0000
vn 0.0000 -1.0000 0.0000
vn 0.0647 0.9979 0.0000
vn -0.0192 0.0000 -0.9998
vn -0.0647 0.9979 0.0000
vn 0.0647 -0.9979 0.0000
vn -0.0647 -0.9979 0.0000
vn 0.0192 0.0000 -0.9998
vn 0.0000 0.9985 -0.0556
vn 0.0000 -0.9985 -0.0556
usemtl None
s off
f 24//1 14//1 4//1 18//1
f 14//2 15//2 8//2 4//2
f 23//3 16//3 6//3 20//3
f 16//4 13//4 2//4 6//4
f 17//5 1//5 5//5 19//5
f 20//6 6//6 2//6 18//6
f 5//4 1//4 9//4 12//4
f 19//3 5//3 12//3 21//3
f 3//2 7//2 11//2 10//2
f 17//1 3//1 10//1 22//1
f 12//4 9//4 13//4 16//4
f 21//3 12//3 16//3 23//3
f 15//7 27//7 32//7 23//7
f 22//8 29//8 30//8 24//8
f 9//1 22//1 24//1 13//1
f 24//9 30//9 25//9 14//9
f 1//1 17//1 22//1 9//1
f 7//3 19//3 21//3 11//3
f 8//6 20//6 18//6 4//6
f 3//5 17//5 19//5 7//5
f 15//3 23//3 20//3 8//3
f 13//1 24//1 18//1 2//1
f 26//2 28//2 27//2 25//2
f 29//1 26//1 25//1 30//1
f 28//3 31//3 32//3 27//3
f 21//10 31//10 28//10 11//10
f 10//11 26//11 29//11 22//11
f 23//12 32//12 31//12 21//12
f 14//13 25//13 27//13 15//13
f 11//14 28//14 26//14 10//14
