# Blender v2.79 (sub 0) OBJ File: 'casa dos vagalumes.blend'
# www.blender.org
mtllib casa dos vagalumes.mtl
o Icosphere
v -0.120533 -0.657372 0.087572
v -0.137916 -0.620339 -0.080586
v 0.035312 -0.615059 -0.143739
v 0.120517 -0.655306 0.000000
v 0.037971 -0.629005 0.159436
v 0.531132 0.082784 0.372349
v 0.612935 0.264504 0.355932
v 0.578199 0.367909 0.507377
v 0.444638 0.267851 0.599907
v 0.436332 0.087058 0.520672
v -0.318226 0.088031 0.696020
v -0.151941 0.087058 0.743934
v -0.108662 0.267851 0.809896
v -0.264793 0.366624 0.814958
v -0.393370 0.268396 0.721541
v -0.743341 0.085052 -0.080586
v -0.760299 0.088031 0.087572
v -0.807793 0.268396 0.151150
v -0.856905 0.366625 -0.000000
v -0.797081 0.266674 -0.138223
v -0.149930 0.083395 -0.571551
v -0.324998 0.085052 -0.512646
v -0.400162 0.266674 -0.548156
v -0.268251 0.367780 -0.648178
v -0.104074 0.265526 -0.646032
v 0.612935 0.264504 -0.355932
v 0.531132 0.082784 -0.372349
v 0.423876 0.083395 -0.496093
v 0.441834 0.265526 -0.574242
v 0.578199 0.367909 -0.507377
v 0.105863 0.966377 0.814958
v 0.248581 0.845901 0.809896
v 0.375756 0.964786 0.724205
v 0.317650 1.144816 0.692258
v 0.149907 1.144817 0.746759
v -0.742360 0.966377 0.352517
v -0.693247 0.868151 0.503668
v -0.564669 0.966377 0.597085
v -0.560217 1.144817 0.516022
v -0.663887 1.144816 0.373332
v -0.566692 0.964662 -0.573047
v -0.687373 0.841096 -0.475851
v -0.742360 0.966377 -0.352517
v -0.663887 1.144816 -0.373332
v -0.560217 1.144817 -0.516022
v 0.375756 0.964786 -0.724205
v 0.248397 0.835854 -0.781426
v 0.100631 0.964662 -0.789876
v 0.149907 1.144817 -0.746759
v 0.317650 1.144816 -0.692258
v 0.788192 0.964786 0.156550
v 0.825984 0.870066 0.000000
v 0.788192 0.964786 -0.156550
v 0.756543 1.144816 -0.088187
v 0.756543 1.144816 0.088187
v -0.046363 1.835101 0.142689
v 0.121379 1.835103 0.088187
v 0.121379 1.835103 -0.088187
v -0.046363 1.835101 -0.142689
v -0.150034 1.835100 -0.000000
vt 0.318533 0.622021
vt 0.455432 0.581088
vt 0.471975 0.722977
vt 0.511780 0.541433
vt 0.601234 0.427566
vt 0.637576 0.576553
vt 0.434985 0.542077
vt 0.302172 0.581788
vt 0.344237 0.426487
vt 0.499273 0.584984
vt 0.623832 0.619759
vt 0.514927 0.719253
vt 0.083473 0.973354
vt 0.108314 0.867224
vt 0.203619 0.938297
vt 0.133130 0.839780
vt 0.255091 0.786100
vt 0.231539 0.913168
vt 0.117990 0.806198
vt 0.129987 0.675639
vt 0.241725 0.751738
vt 0.035420 0.130411
vt 0.124545 0.035971
vt 0.161771 0.160374
vt 0.090937 0.315937
vt 0.180062 0.221497
vt 0.217288 0.345898
vt 0.133719 0.479964
vt 0.231499 0.404221
vt 0.255169 0.531266
vt 0.064147 0.290656
vt 0.026920 0.166252
vt 0.153271 0.196215
vt 0.108242 0.453104
vt 0.081328 0.351516
vt 0.202343 0.380212
vt 0.130012 0.614651
vt 0.119201 0.513819
vt 0.235249 0.562839
vt 0.150994 0.645379
vt 0.261130 0.591154
vt 0.261130 0.720386
vt 0.317557 0.137601
vt 0.461535 0.032993
vt 0.461535 0.184381
vt 0.359562 0.346836
vt 0.304567 0.177581
vt 0.448544 0.224361
vt 0.571535 0.371545
vt 0.393572 0.371545
vt 0.482553 0.249070
vt 0.660540 0.177581
vt 0.605545 0.346836
vt 0.516563 0.224361
vt 0.503572 0.032993
vt 0.647550 0.137601
vt 0.503572 0.184381
vt 0.473104 0.519622
vt 0.314791 0.635070
vt 0.283587 0.614539
vt 0.279807 0.612052
vt 0.299428 0.606186
vt 0.378637 0.399296
vt 0.355856 0.404926
vt 0.341026 0.386037
vt 0.346568 0.386037
vt 0.384552 0.386037
vt 0.590845 0.404372
vt 0.605249 0.386037
vt 0.606826 0.392502
vt 0.615342 0.427412
vt 0.640534 0.601005
vt 0.658940 0.606144
vt 0.657665 0.607309
vt 0.626982 0.635340
vt 0.111923 0.670942
vt 0.114009 0.648247
vt 0.116808 0.644380
vt 0.140627 0.660601
vt 0.107680 0.027007
vt 0.128915 0.004505
vt 0.133557 0.001841
vt 0.141091 0.027018
vt 0.166666 0.208856
vt 0.185773 0.188610
vt 0.189073 0.187367
vt 0.196607 0.212544
vt 0.213621 0.394772
vt 0.235402 0.377900
vt 0.244405 0.372936
vt 0.249219 0.398772
vt 0.243384 0.579362
vt 0.270314 0.566104
vt 0.279548 0.563344
vt 0.279548 0.589624
vt 0.249145 0.768595
vt 0.273265 0.757978
vt 0.279222 0.756970
vt 0.274433 0.782810
vt 0.064824 0.972216
vt 0.091235 0.859378
vt 0.099372 0.807524
vt 0.567631 0.399296
vt 0.047744 0.300086
vt 0.008033 0.167382
vt 0.091701 0.462588
vt 0.063335 0.355516
vt 0.111550 0.615220
vt 0.100186 0.509234
vt 0.021780 0.118030
vt 0.310793 0.124923
vt 0.446092 0.026621
vt 0.344493 0.346515
vt 0.292564 0.186697
vt 0.566574 0.385777
vt 0.398533 0.385777
vt 0.671605 0.189582
vt 0.619925 0.348635
vt 0.519015 0.026621
vt 0.654313 0.124923
vn 0.8301 -0.4757 0.2909
vn 0.5006 -0.8635 -0.0609
vn 0.8067 -0.4877 -0.3338
vn -0.4356 -0.8177 -0.3762
vn -0.8076 -0.4965 -0.3182
vn -0.4557 -0.4603 -0.7618
vn 0.2051 -0.8429 0.4975
vn 0.5651 -0.4820 0.6696
vn -0.0063 -0.4929 0.8700
vn 0.1480 -0.7985 -0.5835
vn -0.1146 -0.4552 -0.8829
vn 0.4437 -0.4906 -0.7499
vn 0.0715 -0.2544 0.9644
vn 0.5550 -0.2822 0.7825
vn 0.3347 0.0192 0.9421
vn 0.8037 -0.1572 0.5739
vn 0.9246 0.1429 0.3529
vn 0.6131 0.1868 0.7675
vn 0.9124 -0.3220 0.2526
vn 0.9026 -0.3335 -0.2723
vn 0.9984 -0.0573 0.0000
vn -0.2967 -0.0713 0.9523
vn -0.0263 0.2420 0.9699
vn -0.5343 0.2508 0.8072
vn -0.9961 -0.0812 -0.0346
vn -0.9328 0.2508 0.2588
vn -0.9281 0.2268 -0.2951
vn -0.3141 -0.2004 -0.9280
vn -0.5307 0.1292 -0.8376
vn -0.0786 0.1104 -0.9908
vn -0.9114 -0.2497 0.3270
vn -0.6004 -0.2444 0.7614
vn -0.8069 0.0711 0.5863
vn -0.5358 -0.3061 -0.7869
vn -0.8677 -0.2779 -0.4121
vn -0.7645 -0.0296 -0.6439
vn 0.4304 -0.3293 -0.8404
vn -0.0593 -0.3170 -0.9466
vn 0.2256 -0.0821 -0.9707
vn 0.7676 -0.1779 -0.6157
vn 0.5765 0.1531 -0.8026
vn 0.9246 0.1429 -0.3529
vn 0.4921 0.4874 0.7213
vn 0.8521 0.4697 0.2308
vn 0.3960 0.8720 0.2877
vn -0.5339 0.5116 0.6731
vn 0.0403 0.5004 0.8649
vn -0.1513 0.8719 0.4656
vn -0.8119 0.4911 -0.3154
vn -0.8052 0.5116 0.2998
vn -0.4895 0.8719 0.0000
vn 0.0222 0.4517 -0.8919
vn -0.5348 0.4665 -0.7045
vn -0.1513 0.8719 -0.4656
vn 0.8521 0.4697 -0.2308
vn 0.4801 0.4672 -0.7424
vn 0.3960 0.8720 -0.2877
vn -0.3925 -0.8903 0.2308
vn -0.4723 -0.4928 0.7308
vn -0.8436 -0.4969 0.2035
usemtl Material.001
s 1
f 6/1/1 4/2/2 27/3/3
f 2/4/4 16/5/5 22/6/6
f 5/7/7 10/8/8 12/9/9
f 3/10/10 21/11/11 28/12/12
f 13/13/13 9/14/14 32/15/15
f 8/16/16 51/17/17 33/18/18
f 7/19/19 26/20/20 52/21/21
f 14/22/22 31/23/23 38/24/24
f 19/25/25 36/26/26 43/27/27
f 24/28/28 41/29/29 48/30/30
f 18/31/31 15/32/32 37/33/33
f 23/34/34 20/35/35 42/36/36
f 29/37/37 25/38/38 47/39/39
f 30/40/40 46/41/41 53/42/42
f 34/43/43 55/44/44 57/45/45
f 39/46/46 35/47/47 56/48/48
f 44/49/49 40/50/50 60/51/51
f 49/52/52 45/53/53 59/54/54
f 54/55/55 50/56/56 58/57/57
f 1/58/58 2/4/4 3/10/10 4/2/2 5/7/7
f 6/1/1 7/59/19 8/60/16 9/61/14 10/62/8
f 11/63/59 12/64/9 13/65/13 14/66/22 15/67/32
f 16/5/5 17/68/60 18/69/31 19/70/25 20/71/35
f 21/11/11 22/72/6 23/73/34 24/74/28 25/75/38
f 26/20/20 27/76/3 28/77/12 29/78/37 30/79/40
f 31/23/23 32/80/15 33/81/18 34/82/43 35/83/47
f 36/26/26 37/84/33 38/85/24 39/86/46 40/87/50
f 41/29/29 42/88/36 43/89/27 44/90/49 45/91/53
f 46/41/41 47/92/39 48/93/30 49/94/52 50/95/56
f 51/17/17 52/96/21 53/97/42 54/98/55 55/99/44
f 56/48/48 57/45/45 58/57/57 59/54/54 60/51/51
f 11/63/59 1/58/58 5/7/7 12/9/9
f 4/2/2 6/1/1 10/8/8 5/7/7
f 9/14/14 13/13/13 12/100/9 10/101/8
f 26/20/20 7/19/19 6/102/1 27/76/3
f 3/10/10 28/12/12 27/3/3 4/2/2
f 16/5/5 2/4/4 1/58/58 17/103/60
f 15/32/32 18/31/31 17/104/60 11/105/59
f 21/11/11 3/10/10 2/4/4 22/6/6
f 20/35/35 23/34/34 22/106/6 16/107/5
f 25/38/38 29/37/37 28/108/12 21/109/11
f 51/17/17 8/16/16 7/19/19 52/21/21
f 30/40/40 53/42/42 52/21/21 26/20/20
f 31/23/23 14/22/22 13/110/13 32/80/15
f 8/16/16 33/18/18 32/15/15 9/14/14
f 36/26/26 19/25/25 18/31/31 37/33/33
f 14/22/22 38/24/24 37/33/33 15/32/32
f 41/29/29 24/28/28 23/34/34 42/36/36
f 19/25/25 43/27/27 42/36/36 20/35/35
f 46/41/41 30/40/40 29/37/37 47/39/39
f 24/28/28 48/30/30 47/39/39 25/38/38
f 55/44/44 34/43/43 33/111/18 51/112/17
f 35/47/47 39/46/46 38/113/24 31/114/23
f 40/50/50 44/49/49 43/115/27 36/116/26
f 45/53/53 49/52/52 48/117/30 41/118/29
f 50/56/56 54/55/55 53/119/42 46/120/41
f 56/48/48 35/47/47 34/43/43 57/45/45
f 54/55/55 58/57/57 57/45/45 55/44/44
f 60/51/51 40/50/50 39/46/46 56/48/48
f 59/54/54 45/53/53 44/49/49 60/51/51
f 58/57/57 50/56/56 49/52/52 59/54/54
f 1/58/58 11/63/59 17/103/60
