# Blender v2.79 (sub 0) OBJ File: 'esfera-bloco-planeta2.blend'
# www.blender.org
mtllib esfera-bloco-planeta2.mtl
o Icosphere.003_Icosphere.004
v -1.642996 1.056039 -1.105457
v -1.096829 1.473269 -0.708649
v -1.851609 1.473269 -0.463402
v -2.318093 1.473272 -1.105457
v -1.851609 1.473269 -1.747513
v -1.096829 1.473269 -1.502266
v -1.434383 2.148376 -0.463402
v -2.189162 2.148376 -0.708649
v -2.189162 2.148376 -1.502266
v -1.434383 2.148376 -1.747513
v -0.967898 2.148373 -1.105457
v -1.642996 2.565606 -1.105457
v -1.818726 1.314538 -0.564608
v -1.765615 1.168763 -0.728069
v -1.701572 1.080230 -0.925175
v -1.489638 1.080231 -0.994038
v -1.321969 1.168763 -0.872221
v -1.182920 1.314538 -0.771197
v -1.241496 1.431694 -0.590912
v -1.444587 1.414004 -0.494829
v -1.665367 1.431693 -0.453186
v -1.029562 1.431695 -1.328298
v -1.000941 1.414006 -1.105457
v -1.029562 1.431695 -0.882617
v -1.489638 1.080231 -1.216877
v -1.321969 1.168763 -1.338694
v -1.182920 1.314538 -1.439718
v -2.211681 1.314541 -1.105457
v -2.039808 1.168765 -1.105457
v -1.832557 1.080231 -1.105457
v -2.008289 1.431694 -0.564607
v -2.162429 1.414006 -0.728068
v -2.270259 1.431696 -0.925175
v -1.818726 1.314538 -1.646307
v -1.765615 1.168763 -1.482845
v -1.701572 1.080230 -1.285739
v -2.270259 1.431696 -1.285740
v -2.162429 1.414006 -1.482846
v -2.008289 1.431694 -1.646308
v -1.665367 1.431693 -1.757729
v -1.444587 1.414004 -1.716086
v -1.241496 1.431694 -1.620002
v -0.920951 2.000386 -0.994037
v -0.925153 1.810822 -0.872220
v -0.993356 1.621258 -0.771196
v -0.993356 1.621258 -1.439719
v -0.925153 1.810822 -1.338695
v -0.920951 2.000386 -1.216877
v -1.525842 2.000387 -0.384321
v -1.642996 1.810822 -0.350674
v -1.760149 1.621257 -0.384321
v -1.124340 1.621257 -0.590910
v -1.199345 1.810822 -0.494825
v -1.313905 2.000388 -0.453183
v -2.292636 2.000387 -0.771196
v -2.360838 1.810822 -0.872220
v -2.365041 1.621259 -0.994037
v -1.972086 1.621257 -0.453183
v -2.086646 1.810822 -0.494825
v -2.161652 2.000388 -0.590910
v -2.161652 2.000388 -1.620005
v -2.086646 1.810822 -1.716089
v -1.972086 1.621257 -1.757732
v -2.365041 1.621259 -1.216877
v -2.360838 1.810822 -1.338695
v -2.292636 2.000387 -1.439719
v -1.313905 2.000388 -1.757732
v -1.199345 1.810822 -1.716089
v -1.124340 1.621257 -1.620005
v -1.760149 1.621257 -1.826594
v -1.642996 1.810822 -1.860240
v -1.525842 2.000387 -1.826594
v -1.015733 2.189949 -0.925175
v -1.123562 2.207639 -0.728068
v -1.277702 2.189951 -0.564607
v -1.620625 2.189951 -0.453186
v -1.841405 2.207640 -0.494829
v -2.044496 2.189951 -0.590912
v -2.256430 2.189950 -0.882617
v -2.285051 2.207639 -1.105457
v -2.256430 2.189950 -1.328298
v -2.044496 2.189951 -1.620002
v -1.841405 2.207640 -1.716086
v -1.620625 2.189951 -1.757729
v -1.277702 2.189951 -1.646308
v -1.123562 2.207639 -1.482846
v -1.015733 2.189949 -1.285740
v -1.584420 2.541415 -0.925175
v -1.520377 2.452882 -0.728069
v -1.467266 2.307107 -0.564608
v -1.074311 2.307103 -1.105457
v -1.246184 2.452880 -1.105457
v -1.453434 2.541414 -1.105457
v -1.796353 2.541414 -0.994038
v -1.964022 2.452882 -0.872221
v -2.103071 2.307106 -0.771197
v -1.796353 2.541414 -1.216877
v -1.964022 2.452882 -1.338694
v -2.103071 2.307106 -1.439718
v -1.584420 2.541415 -1.285739
v -1.520377 2.452882 -1.482845
v -1.467266 2.307107 -1.646307
v -1.369915 2.485922 -1.303862
v -1.161298 2.356991 -1.303863
v -1.305450 2.356992 -1.502268
v -1.747305 2.485923 -1.426481
v -1.682841 2.356993 -1.624888
v -1.916079 2.356993 -1.549103
v -1.980542 2.485922 -1.105457
v -2.149317 2.356992 -1.228077
v -2.149317 2.356992 -0.982838
v -1.747305 2.485923 -0.784433
v -1.916079 2.356993 -0.661812
v -1.682841 2.356993 -0.586027
v -1.369915 2.485922 -0.907053
v -1.305450 2.356992 -0.708647
v -1.161298 2.356991 -0.907052
v -0.992520 2.019442 -1.426483
v -1.032362 1.810822 -1.549105
v -1.136672 2.019443 -1.624891
v -1.747306 2.019443 -1.823298
v -1.876236 1.810822 -1.823299
v -1.980546 2.019443 -1.747513
v -2.357936 2.019441 -1.228078
v -2.397779 1.810823 -1.105457
v -2.357936 2.019442 -0.982837
v -1.980547 2.019442 -0.463402
v -1.876237 1.810822 -0.387616
v -1.747306 2.019442 -0.387617
v -1.136672 2.019442 -0.586023
v -1.032362 1.810821 -0.661809
v -0.992520 2.019440 -0.784431
v -1.409755 1.810822 -1.823299
v -1.305445 1.602202 -1.747512
v -1.538685 1.602202 -1.823298
v -2.253629 1.810822 -1.549106
v -2.149318 1.602202 -1.624892
v -2.293470 1.602203 -1.426485
v -2.253629 1.810822 -0.661808
v -2.293470 1.602203 -0.784430
v -2.149318 1.602202 -0.586023
v -1.409755 1.810822 -0.387616
v -1.538685 1.602202 -0.387617
v -1.305445 1.602202 -0.463402
v -0.888213 1.810822 -1.105457
v -0.928055 1.602203 -0.982837
v -0.928055 1.602203 -1.228078
v -1.369913 1.264652 -1.549103
v -1.538687 1.135722 -1.426483
v -1.603152 1.264653 -1.624889
v -1.980543 1.264653 -1.502267
v -1.916077 1.135723 -1.303861
v -2.124694 1.264654 -1.303862
v -2.124694 1.264654 -0.907052
v -1.916077 1.135723 -0.907052
v -1.980543 1.264654 -0.708646
v -1.136674 1.264653 -1.228077
v -1.136674 1.264654 -0.982837
v -1.305448 1.135723 -1.105457
v -1.603150 1.264652 -0.586027
v -1.538686 1.135722 -0.784432
v -1.369912 1.264653 -0.661811
vt 0.186652 0.340131
vt 0.168366 0.365300
vt 0.157064 0.330518
vt 0.098014 0.462132
vt 0.121428 0.429905
vt 0.138579 0.472354
vt 0.186652 0.309020
vt 0.216239 0.330518
vt 0.204938 0.365300
vt 0.099927 0.508091
vt 0.043231 0.293531
vt 0.046045 0.335270
vt 0.000113 0.309552
vt 0.186652 0.189329
vt 0.147826 0.204903
vt 0.158091 0.153272
vt 0.330072 0.293532
vt 0.303262 0.261417
vt 0.355539 0.255226
vt 0.275290 0.462132
vt 0.297547 0.426711
vt 0.319590 0.474515
vt 0.053714 0.474515
vt 0.017765 0.255226
vt 0.215212 0.153273
vt 0.373190 0.309552
vt 0.273377 0.508091
vt 0.471316 0.213355
vt 0.511882 0.203133
vt 0.494730 0.245582
vt 0.416535 0.381956
vt 0.419349 0.340217
vt 0.454420 0.369646
vt 0.559954 0.486156
vt 0.521128 0.470582
vt 0.559954 0.446322
vt 0.703375 0.381956
vt 0.676565 0.414070
vt 0.665490 0.369646
vt 0.648594 0.213354
vt 0.670851 0.248775
vt 0.625180 0.245581
vt 0.578241 0.310186
vt 0.589543 0.344969
vt 0.559955 0.335355
vt 0.600694 0.279283
vt 0.614737 0.317556
vt 0.643223 0.284113
vt 0.625872 0.356773
vt 0.657440 0.327868
vt 0.689660 0.293211
vt 0.700562 0.340217
vt 0.559955 0.366465
vt 0.593812 0.381955
vt 0.634420 0.398713
vt 0.559955 0.404664
vt 0.597200 0.425755
vt 0.640117 0.445689
vt 0.598781 0.470583
vt 0.530368 0.344969
vt 0.526098 0.381955
vt 0.522709 0.425755
vt 0.494039 0.356773
vt 0.485490 0.398713
vt 0.479793 0.445689
vt 0.443345 0.414069
vt 0.541669 0.310187
vt 0.505174 0.317556
vt 0.462471 0.327868
vt 0.519216 0.279283
vt 0.476687 0.284113
vt 0.430250 0.293212
vt 0.449059 0.248776
vt 0.559955 0.277754
vt 0.536952 0.240328
vt 0.582959 0.240328
vt 0.559956 0.198975
vt 0.608029 0.203132
vt 0.692506 0.212985
vt 0.831887 0.052409
vt 0.806690 0.011249
vt 0.855381 0.004137
vt 0.810823 0.093351
vt 0.784662 0.056224
vt 0.728847 0.256972
vt 0.755871 0.015247
vt 0.745543 0.310506
vt 0.764624 0.096983
vt 0.737423 0.059838
vt 0.711199 0.016345
vt 0.742230 0.367873
vt 0.723804 0.426074
vt 0.642965 0.067267
vt 0.617774 0.026108
vt 0.663536 0.019002
vt 0.621907 0.108207
vt 0.595745 0.071082
vt 0.692774 0.474281
vt 0.566955 0.030105
vt 0.647433 0.507958
vt 0.575708 0.111841
vt 0.548508 0.074696
vt 0.522284 0.031203
vt 0.588515 0.522213
vt 0.531393 0.522213
vt 0.454049 0.082124
vt 0.428858 0.040966
vt 0.475108 0.034348
vt 0.432990 0.123064
vt 0.406829 0.085939
vt 0.475235 0.509261
vt 0.378040 0.044962
vt 0.427523 0.473893
vt 0.386792 0.126698
vt 0.359593 0.089553
vt 0.333369 0.045572
vt 0.396882 0.425299
vt 0.377680 0.367485
vt 0.265134 0.096981
vt 0.239943 0.055823
vt 0.286193 0.048678
vt 0.244075 0.137922
vt 0.217912 0.100796
vt 0.374755 0.308956
vt 0.189124 0.059818
vt 0.392226 0.255810
vt 0.197876 0.141557
vt 0.170670 0.104411
vt 0.143475 0.059506
vt 0.429342 0.211048
vt 0.478655 0.175147
vt 0.076017 0.111843
vt 0.051029 0.070399
vt 0.096111 0.063876
vt 0.055160 0.153046
vt 0.027780 0.115769
vt 0.532814 0.154048
vt 0.000113 0.072951
vt 0.590585 0.154435
vt 0.999887 0.080144
vt 0.953579 0.082389
vt 0.974795 0.041291
vt 0.926538 0.044954
vt 0.944740 0.000113
vt 0.899135 0.000465
vt 0.642807 0.176310
vt 0.690186 0.063452
vt 0.718000 0.096616
vt 0.669134 0.100125
vt 0.350118 0.426265
vt 0.316356 0.382275
vt 0.369527 0.366531
vt 0.327258 0.335270
vt 0.501270 0.078310
vt 0.530060 0.112450
vt 0.479241 0.114982
vt 0.319084 0.211282
vt 0.266814 0.229797
vt 0.268270 0.174364
vt 0.225478 0.204903
vt 0.312355 0.093167
vt 0.341532 0.126392
vt 0.290325 0.129614
vt 0.105033 0.174364
vt 0.106490 0.229797
vt 0.054220 0.211282
vt 0.070041 0.261417
vt 0.123406 0.108025
vt 0.150291 0.141258
vt 0.099475 0.145295
vt 0.003777 0.366531
vt 0.056947 0.382275
vt 0.023186 0.426265
vt 0.075757 0.426711
vt 0.879136 0.048591
vt 0.909360 0.081807
vt 0.858538 0.085763
vt 0.155248 0.522214
vt 0.186652 0.476511
vt 0.218056 0.522214
vt 0.234725 0.472354
vt 0.251876 0.429905
vt 0.227390 0.396203
vt 0.269919 0.391374
vt 0.241433 0.357931
vt 0.284137 0.347619
vt 0.252569 0.318714
vt 0.292188 0.305841
vt 0.261117 0.276773
vt 0.220509 0.293531
vt 0.223897 0.249731
vt 0.186652 0.270821
vt 0.186652 0.229163
vt 0.149406 0.249731
vt 0.152795 0.293531
vt 0.112186 0.276773
vt 0.120735 0.318713
vt 0.081116 0.305841
vt 0.209655 0.435158
vt 0.163649 0.435159
vt 0.186652 0.397732
vt 0.145913 0.396203
vt 0.089167 0.347619
vt 0.131870 0.357931
vt 0.103384 0.391374
vn 0.0000 -1.0000 0.0000
vn 0.2109 -0.9654 0.1532
vn -0.0806 -0.9654 0.2480
vn 0.7236 -0.4472 0.5257
vn 0.6042 -0.6650 0.4390
vn 0.8152 -0.5038 0.2857
vn -0.2608 -0.9654 0.0000
vn -0.0806 -0.9654 -0.2480
vn 0.2109 -0.9654 -0.1532
vn 0.8650 -0.2430 0.4390
vn -0.2764 -0.4472 0.8506
vn -0.0198 -0.5038 0.8636
vn -0.1502 -0.2430 0.9583
vn -0.8944 -0.4472 0.0000
vn -0.8274 -0.5038 0.2480
vn -0.9578 -0.2430 0.1533
vn -0.2764 -0.4472 -0.8506
vn -0.4915 -0.5038 -0.7103
vn -0.4417 -0.2430 -0.8636
vn 0.7236 -0.4472 -0.5257
vn 0.5236 -0.5038 -0.6870
vn 0.6848 -0.2430 -0.6870
vn 0.6848 -0.2430 0.6870
vn -0.4417 -0.2430 0.8636
vn -0.9578 -0.2430 -0.1533
vn -0.1502 -0.2430 -0.9583
vn 0.8650 -0.2430 -0.4390
vn 0.2764 0.4472 0.8506
vn 0.4915 0.5038 0.7103
vn 0.2308 0.6650 0.7103
vn -0.7236 0.4472 0.5257
vn -0.5236 0.5038 0.6870
vn -0.6042 0.6650 0.4390
vn -0.7236 0.4472 -0.5257
vn -0.8152 0.5038 -0.2857
vn -0.6042 0.6650 -0.4390
vn 0.2764 0.4472 -0.8506
vn 0.0198 0.5038 -0.8636
vn 0.2308 0.6650 -0.7103
vn 0.8944 0.4472 0.0000
vn 0.8274 0.5038 -0.2480
vn 0.7468 0.6650 0.0000
vn 0.2608 0.9654 0.0000
vn 0.0806 0.9654 -0.2480
vn 0.0000 1.0000 0.0000
vn 0.5257 0.8506 0.0000
vn 0.3682 0.8904 -0.2675
vn 0.6317 0.7275 -0.2675
vn 0.1625 0.8506 -0.5000
vn 0.4496 0.7275 -0.5181
vn 0.6882 0.5257 -0.5000
vn 0.4915 0.5038 -0.7103
vn -0.2109 0.9654 -0.1532
vn -0.1406 0.8904 -0.4328
vn -0.0592 0.7275 -0.6835
vn -0.4253 0.8506 -0.3090
vn -0.3538 0.7275 -0.5877
vn -0.2629 0.5257 -0.8090
vn -0.5236 0.5038 -0.6870
vn -0.2109 0.9654 0.1532
vn -0.4551 0.8904 0.0000
vn -0.6683 0.7275 -0.1549
vn -0.4253 0.8506 0.3090
vn -0.6683 0.7275 0.1549
vn -0.8506 0.5257 0.0000
vn -0.8152 0.5038 0.2857
vn 0.0806 0.9654 0.2480
vn -0.1406 0.8904 0.4328
vn -0.3538 0.7275 0.5878
vn 0.1625 0.8506 0.5000
vn -0.0592 0.7275 0.6835
vn -0.2629 0.5257 0.8090
vn 0.0198 0.5038 0.8636
vn 0.3682 0.8904 0.2675
vn 0.4496 0.7275 0.5181
vn 0.6317 0.7275 0.2675
vn 0.6882 0.5257 0.5000
vn 0.8274 0.5038 0.2480
vn 0.9578 0.2430 -0.1533
vn 0.9510 0.0000 -0.3090
vn 0.8593 0.2724 -0.4328
vn 0.8090 0.0089 -0.5878
vn 0.6772 0.2724 -0.6835
vn 0.5878 0.0000 -0.8090
vn 0.4417 0.2430 -0.8636
vn 0.1502 0.2430 -0.9583
vn 0.0000 0.0000 -1.0000
vn -0.1461 0.2724 -0.9510
vn -0.3090 0.0089 -0.9510
vn -0.4407 0.2724 -0.8553
vn -0.5878 0.0000 -0.8090
vn -0.6848 0.2430 -0.6870
vn -0.8650 0.2430 -0.4390
vn -0.9510 0.0000 -0.3090
vn -0.9496 0.2724 -0.1549
vn -0.9999 0.0089 0.0000
vn -0.9496 0.2724 0.1549
vn -0.9510 0.0000 0.3090
vn -0.8650 0.2430 0.4390
vn -0.6848 0.2430 0.6870
vn -0.5878 0.0000 0.8090
vn -0.4407 0.2724 0.8553
vn -0.3090 0.0089 0.9510
vn -0.1461 0.2724 0.9510
vn 0.0000 0.0000 1.0000
vn 0.1502 0.2430 0.9583
vn 0.4417 0.2430 0.8636
vn 0.5878 0.0000 0.8090
vn 0.6772 0.2724 0.6835
vn 0.8090 0.0089 0.5878
vn 0.8593 0.2724 0.4328
vn 0.9510 0.0000 0.3090
vn 0.9578 0.2430 0.1533
vn 0.3090 -0.0089 -0.9510
vn 0.4407 -0.2724 -0.8553
vn 0.1461 -0.2724 -0.9510
vn 0.2629 -0.5257 -0.8090
vn -0.0198 -0.5038 -0.8636
vn -0.8090 -0.0089 -0.5878
vn -0.6772 -0.2724 -0.6835
vn -0.8593 -0.2724 -0.4328
vn -0.6882 -0.5257 -0.5000
vn -0.8274 -0.5038 -0.2480
vn -0.8090 -0.0089 0.5878
vn -0.8593 -0.2724 0.4328
vn -0.6772 -0.2724 0.6835
vn -0.6882 -0.5257 0.5000
vn -0.4915 -0.5038 0.7103
vn 0.3090 -0.0089 0.9510
vn 0.1461 -0.2724 0.9510
vn 0.4407 -0.2724 0.8553
vn 0.2629 -0.5257 0.8090
vn 0.5236 -0.5038 0.6870
vn 0.9999 -0.0089 0.0000
vn 0.9496 -0.2724 0.1549
vn 0.9496 -0.2724 -0.1549
vn 0.8506 -0.5257 0.0000
vn 0.8152 -0.5038 -0.2857
vn 0.6042 -0.6650 -0.4390
vn 0.4253 -0.8506 -0.3090
vn 0.3538 -0.7275 -0.5877
vn 0.1406 -0.8904 -0.4328
vn 0.0592 -0.7275 -0.6835
vn -0.1625 -0.8506 -0.5000
vn -0.2308 -0.6650 -0.7103
vn -0.4496 -0.7275 -0.5181
vn -0.3682 -0.8904 -0.2675
vn -0.6317 -0.7275 -0.2675
vn -0.5257 -0.8506 0.0000
vn -0.7468 -0.6650 0.0000
vn -0.6317 -0.7275 0.2675
vn -0.3682 -0.8904 0.2675
vn -0.4496 -0.7275 0.5181
vn -0.1625 -0.8506 0.5000
vn -0.2308 -0.6650 0.7103
vn 0.6683 -0.7275 -0.1549
vn 0.6683 -0.7275 0.1549
vn 0.4551 -0.8904 0.0000
vn 0.4253 -0.8506 0.3090
vn 0.0592 -0.7275 0.6835
vn 0.1406 -0.8904 0.4328
vn 0.3538 -0.7275 0.5878
usemtl None
s 1
f 1/1/1 16/2/2 15/3/3
f 2/4/4 18/5/5 24/6/6
f 1/1/1 15/3/3 30/7/7
f 1/1/1 30/7/7 36/8/8
f 1/1/1 36/8/8 25/9/9
f 2/4/4 24/6/6 45/10/10
f 3/11/11 21/12/12 51/13/13
f 4/14/14 33/15/15 57/16/16
f 5/17/17 39/18/18 63/19/19
f 6/20/20 42/21/21 69/22/22
f 2/4/4 45/10/10 52/23/23
f 3/11/11 51/13/13 58/24/24
f 4/14/14 57/16/16 64/25/25
f 5/17/17 63/19/19 70/26/26
f 6/20/20 69/22/22 46/27/27
f 7/28/28 75/29/29 90/30/30
f 8/31/31 78/32/32 96/33/33
f 9/34/34 81/35/35 99/36/36
f 10/37/37 84/38/38 102/39/39
f 11/40/40 87/41/41 91/42/42
f 93/43/43 100/44/44 12/45/45
f 92/46/46 103/47/47 93/43/43
f 91/42/42 104/48/48 92/46/46
f 93/43/43 103/47/47 100/44/44
f 103/47/47 101/49/49 100/44/44
f 92/46/46 104/48/48 103/47/47
f 104/48/48 105/50/50 103/47/47
f 103/47/47 105/50/50 101/49/49
f 105/50/50 102/39/39 101/49/49
f 91/42/42 87/41/41 104/48/48
f 87/41/41 86/51/51 104/48/48
f 104/48/48 86/51/51 105/50/50
f 86/51/51 85/52/52 105/50/50
f 105/50/50 85/52/52 102/39/39
f 85/52/52 10/37/37 102/39/39
f 100/44/44 97/53/53 12/45/45
f 101/49/49 106/54/54 100/44/44
f 102/39/39 107/55/55 101/49/49
f 100/44/44 106/54/54 97/53/53
f 106/54/54 98/56/56 97/53/53
f 101/49/49 107/55/55 106/54/54
f 107/55/55 108/57/57 106/54/54
f 106/54/54 108/57/57 98/56/56
f 108/57/57 99/36/36 98/56/56
f 102/39/39 84/38/38 107/55/55
f 84/38/38 83/58/58 107/55/55
f 107/55/55 83/58/58 108/57/57
f 83/58/58 82/59/59 108/57/57
f 108/57/57 82/59/59 99/36/36
f 82/59/59 9/34/34 99/36/36
f 97/53/53 94/60/60 12/45/45
f 98/56/56 109/61/61 97/53/53
f 99/36/36 110/62/62 98/56/56
f 97/53/53 109/61/61 94/60/60
f 109/61/61 95/63/63 94/60/60
f 98/56/56 110/62/62 109/61/61
f 110/62/62 111/64/64 109/61/61
f 109/61/61 111/64/64 95/63/63
f 111/64/64 96/33/33 95/63/63
f 99/36/36 81/35/35 110/62/62
f 81/35/35 80/65/65 110/62/62
f 110/62/62 80/65/65 111/64/64
f 80/65/65 79/66/66 111/64/64
f 111/64/64 79/66/66 96/33/33
f 79/66/66 8/31/31 96/33/33
f 94/60/60 88/67/67 12/45/45
f 95/63/63 112/68/68 94/60/60
f 96/33/33 113/69/69 95/63/63
f 94/60/60 112/68/68 88/67/67
f 112/68/68 89/70/70 88/67/67
f 95/63/63 113/69/69 112/68/68
f 113/69/69 114/71/71 112/68/68
f 112/68/68 114/71/71 89/70/70
f 114/71/71 90/30/30 89/70/70
f 96/33/33 78/32/32 113/69/69
f 78/32/32 77/72/72 113/69/69
f 113/69/69 77/72/72 114/71/71
f 77/72/72 76/73/73 114/71/71
f 114/71/71 76/73/73 90/30/30
f 76/73/73 7/28/28 90/30/30
f 88/67/67 93/43/43 12/45/45
f 89/70/70 115/74/74 88/67/67
f 90/30/30 116/75/75 89/70/70
f 88/67/67 115/74/74 93/43/43
f 115/74/74 92/46/46 93/43/43
f 89/70/70 116/75/75 115/74/74
f 116/75/75 117/76/76 115/74/74
f 115/74/74 117/76/76 92/46/46
f 117/76/76 91/42/42 92/46/46
f 90/30/30 75/29/29 116/75/75
f 75/29/29 74/77/77 116/75/75
f 116/75/75 74/77/77 117/76/76
f 74/77/77 73/78/78 117/76/76
f 117/76/76 73/78/78 91/42/42
f 73/78/78 11/40/40 91/42/42
f 48/79/79 87/41/41 11/40/40
f 47/80/80 118/81/81 48/82/79
f 46/83/27 119/84/82 47/80/80
f 48/79/79 118/85/81 87/41/41
f 118/85/81 86/51/51 87/41/41
f 47/80/80 119/84/82 118/81/81
f 119/84/82 120/86/83 118/81/81
f 118/85/81 120/87/83 86/51/51
f 120/87/83 85/52/52 86/51/51
f 46/83/27 69/88/22 119/84/82
f 69/88/22 68/89/84 119/84/82
f 119/84/82 68/89/84 120/86/83
f 68/89/84 67/90/85 120/86/83
f 120/87/83 67/91/85 85/52/52
f 67/91/85 10/37/37 85/52/52
f 72/92/86 84/38/38 10/37/37
f 71/93/87 121/94/88 72/95/86
f 70/96/26 122/97/89 71/93/87
f 72/92/86 121/98/88 84/38/38
f 121/98/88 83/58/58 84/38/38
f 71/93/87 122/97/89 121/94/88
f 122/97/89 123/99/90 121/94/88
f 121/98/88 123/100/90 83/58/58
f 123/100/90 82/59/59 83/58/58
f 70/96/26 63/101/19 122/97/89
f 63/101/19 62/102/91 122/97/89
f 122/97/89 62/102/91 123/99/90
f 62/102/91 61/103/92 123/99/90
f 123/100/90 61/104/92 82/59/59
f 61/104/92 9/34/34 82/59/59
f 66/105/93 81/35/35 9/34/34
f 65/106/94 124/107/95 66/108/93
f 64/109/25 125/110/96 65/106/94
f 66/105/93 124/111/95 81/35/35
f 124/111/95 80/65/65 81/35/35
f 65/106/94 125/110/96 124/107/95
f 125/110/96 126/112/97 124/107/95
f 124/111/95 126/113/97 80/65/65
f 126/113/97 79/66/66 80/65/65
f 64/109/25 57/114/16 125/110/96
f 57/114/16 56/115/98 125/110/96
f 125/110/96 56/115/98 126/112/97
f 56/115/98 55/116/99 126/112/97
f 126/113/97 55/117/99 79/66/66
f 55/117/99 8/31/31 79/66/66
f 60/118/100 78/32/32 8/31/31
f 59/119/101 127/120/102 60/121/100
f 58/122/24 128/123/103 59/119/101
f 60/118/100 127/124/102 78/32/32
f 127/124/102 77/72/72 78/32/32
f 59/119/101 128/123/103 127/120/102
f 128/123/103 129/125/104 127/120/102
f 127/124/102 129/126/104 77/72/72
f 129/126/104 76/73/73 77/72/72
f 58/122/24 51/127/13 128/123/103
f 51/127/13 50/128/105 128/123/103
f 128/123/103 50/128/105 129/125/104
f 50/128/105 49/129/106 129/125/104
f 129/126/104 49/130/106 76/73/73
f 49/130/106 7/28/28 76/73/73
f 54/131/107 75/29/29 7/28/28
f 53/132/108 130/133/109 54/134/107
f 52/135/23 131/136/110 53/132/108
f 54/131/107 130/137/109 75/29/29
f 130/137/109 74/77/77 75/29/29
f 53/132/108 131/136/110 130/133/109
f 131/136/110 132/138/111 130/133/109
f 130/137/109 132/139/111 74/77/77
f 132/139/111 73/78/78 74/77/77
f 52/140/23 45/141/10 131/142/110
f 45/141/10 44/143/112 131/142/110
f 131/142/110 44/143/112 132/144/111
f 44/143/112 43/145/113 132/144/111
f 132/139/111 43/146/113 73/78/78
f 43/146/113 11/40/40 73/78/78
f 67/91/85 72/92/86 10/37/37
f 68/89/84 133/147/114 67/90/85
f 69/88/22 134/148/115 68/89/84
f 67/90/85 133/147/114 72/95/86
f 133/147/114 71/93/87 72/95/86
f 68/89/84 134/148/115 133/147/114
f 134/148/115 135/149/116 133/147/114
f 133/147/114 135/149/116 71/93/87
f 135/149/116 70/96/26 71/93/87
f 69/22/22 42/21/21 134/150/115
f 42/21/21 41/151/117 134/150/115
f 134/150/115 41/151/117 135/152/116
f 41/151/117 40/153/118 135/152/116
f 135/152/116 40/153/118 70/26/26
f 40/153/118 5/17/17 70/26/26
f 61/104/92 66/105/93 9/34/34
f 62/102/91 136/154/119 61/103/92
f 63/101/19 137/155/120 62/102/91
f 61/103/92 136/154/119 66/108/93
f 136/154/119 65/106/94 66/108/93
f 62/102/91 137/155/120 136/154/119
f 137/155/120 138/156/121 136/154/119
f 136/154/119 138/156/121 65/106/94
f 138/156/121 64/109/25 65/106/94
f 63/19/19 39/18/18 137/157/120
f 39/18/18 38/158/122 137/157/120
f 137/157/120 38/158/122 138/159/121
f 38/158/122 37/160/123 138/159/121
f 138/159/121 37/160/123 64/25/25
f 37/160/123 4/14/14 64/25/25
f 55/117/99 60/118/100 8/31/31
f 56/115/98 139/161/124 55/116/99
f 57/114/16 140/162/125 56/115/98
f 55/116/99 139/161/124 60/121/100
f 139/161/124 59/119/101 60/121/100
f 56/115/98 140/162/125 139/161/124
f 140/162/125 141/163/126 139/161/124
f 139/161/124 141/163/126 59/119/101
f 141/163/126 58/122/24 59/119/101
f 57/16/16 33/15/15 140/164/125
f 33/15/15 32/165/127 140/164/125
f 140/164/125 32/165/127 141/166/126
f 32/165/127 31/167/128 141/166/126
f 141/166/126 31/167/128 58/24/24
f 31/167/128 3/11/11 58/24/24
f 49/130/106 54/131/107 7/28/28
f 50/128/105 142/168/129 49/129/106
f 51/127/13 143/169/130 50/128/105
f 49/129/106 142/168/129 54/134/107
f 142/168/129 53/132/108 54/134/107
f 50/128/105 143/169/130 142/168/129
f 143/169/130 144/170/131 142/168/129
f 142/168/129 144/170/131 53/132/108
f 144/170/131 52/135/23 53/132/108
f 51/13/13 21/12/12 143/171/130
f 21/12/12 20/172/132 143/171/130
f 143/171/130 20/172/132 144/173/131
f 20/172/132 19/174/133 144/173/131
f 144/173/131 19/174/133 52/23/23
f 19/174/133 2/4/4 52/23/23
f 43/146/113 48/79/79 11/40/40
f 44/143/112 145/175/134 43/145/113
f 45/141/10 146/176/135 44/143/112
f 43/145/113 145/175/134 48/82/79
f 145/175/134 47/80/80 48/82/79
f 44/143/112 146/176/135 145/175/134
f 146/176/135 147/177/136 145/175/134
f 145/175/134 147/177/136 47/80/80
f 147/177/136 46/83/27 47/80/80
f 45/10/10 24/6/6 146/178/135
f 24/6/6 23/179/137 146/178/135
f 146/178/135 23/179/137 147/180/136
f 23/179/137 22/181/138 147/180/136
f 147/180/136 22/181/138 46/27/27
f 22/181/138 6/20/20 46/27/27
f 27/182/139 42/21/21 6/20/20
f 26/183/140 148/184/141 27/182/139
f 25/9/9 149/185/142 26/183/140
f 27/182/139 148/184/141 42/21/21
f 148/184/141 41/151/117 42/21/21
f 26/183/140 149/185/142 148/184/141
f 149/185/142 150/186/143 148/184/141
f 148/184/141 150/186/143 41/151/117
f 150/186/143 40/153/118 41/151/117
f 25/9/9 36/8/8 149/185/142
f 36/8/8 35/187/144 149/185/142
f 149/185/142 35/187/144 150/186/143
f 35/187/144 34/188/145 150/186/143
f 150/186/143 34/188/145 40/153/118
f 34/188/145 5/17/17 40/153/118
f 34/188/145 39/18/18 5/17/17
f 35/187/144 151/189/146 34/188/145
f 36/8/8 152/190/147 35/187/144
f 34/188/145 151/189/146 39/18/18
f 151/189/146 38/158/122 39/18/18
f 35/187/144 152/190/147 151/189/146
f 152/190/147 153/191/148 151/189/146
f 151/189/146 153/191/148 38/158/122
f 153/191/148 37/160/123 38/158/122
f 36/8/8 30/7/7 152/190/147
f 30/7/7 29/192/149 152/190/147
f 152/190/147 29/192/149 153/191/148
f 29/192/149 28/193/150 153/191/148
f 153/191/148 28/193/150 37/160/123
f 28/193/150 4/14/14 37/160/123
f 28/193/150 33/15/15 4/14/14
f 29/192/149 154/194/151 28/193/150
f 30/7/7 155/195/152 29/192/149
f 28/193/150 154/194/151 33/15/15
f 154/194/151 32/165/127 33/15/15
f 29/192/149 155/195/152 154/194/151
f 155/195/152 156/196/153 154/194/151
f 154/194/151 156/196/153 32/165/127
f 156/196/153 31/167/128 32/165/127
f 30/7/7 15/3/3 155/195/152
f 15/3/3 14/197/154 155/195/152
f 155/195/152 14/197/154 156/196/153
f 14/197/154 13/198/155 156/196/153
f 156/196/153 13/198/155 31/167/128
f 13/198/155 3/11/11 31/167/128
f 22/181/138 27/182/139 6/20/20
f 23/179/137 157/199/156 22/181/138
f 24/6/6 158/200/157 23/179/137
f 22/181/138 157/199/156 27/182/139
f 157/199/156 26/183/140 27/182/139
f 23/179/137 158/200/157 157/199/156
f 158/200/157 159/201/158 157/199/156
f 157/199/156 159/201/158 26/183/140
f 159/201/158 25/9/9 26/183/140
f 24/6/6 18/5/5 158/200/157
f 18/5/5 17/202/159 158/200/157
f 158/200/157 17/202/159 159/201/158
f 17/202/159 16/2/2 159/201/158
f 159/201/158 16/2/2 25/9/9
f 16/2/2 1/1/1 25/9/9
f 13/198/155 21/12/12 3/11/11
f 14/197/154 160/203/160 13/198/155
f 15/3/3 161/204/161 14/197/154
f 13/198/155 160/203/160 21/12/12
f 160/203/160 20/172/132 21/12/12
f 14/197/154 161/204/161 160/203/160
f 161/204/161 162/205/162 160/203/160
f 160/203/160 162/205/162 20/172/132
f 162/205/162 19/174/133 20/172/132
f 15/3/3 16/2/2 161/204/161
f 16/2/2 17/202/159 161/204/161
f 161/204/161 17/202/159 162/205/162
f 17/202/159 18/5/5 162/205/162
f 162/205/162 18/5/5 19/174/133
f 18/5/5 2/4/4 19/174/133
