# Blender v2.79 (sub 0) OBJ File: 'piramide-esfera-planeta2.blend'
# www.blender.org
mtllib piramide-esfera-planeta2.mtl
o Cone.003
v -1.715166 1.241475 -0.569107
v -1.032999 1.241475 -0.286544
v -0.750436 1.241475 0.395623
v -1.032999 1.241475 1.077790
v -1.715166 1.241475 1.360353
v -2.397333 1.241475 1.077790
v -2.679895 1.241475 0.395623
v -2.397333 1.241475 -0.286544
v -1.715166 3.170935 0.395623
vt 0.177801 0.606808
vt 0.303454 0.303454
vt 0.429108 0.606809
vt 0.606808 0.429108
vt 0.606808 0.177801
vt 0.429108 0.000100
vt 0.177801 0.000100
vt 0.000100 0.177801
vt 0.000100 0.429108
vt 0.722084 0.000100
vt 0.884825 0.000100
vt 0.999900 0.115175
vt 0.999900 0.277916
vt 0.884825 0.392992
vt 0.722084 0.392992
vt 0.607008 0.277916
vt 0.607008 0.115175
vn 0.3474 0.4194 -0.8387
vn 0.8387 0.4194 -0.3474
vn 0.8387 0.4194 0.3474
vn 0.3474 0.4194 0.8387
vn -0.3474 0.4194 0.8387
vn -0.8387 0.4194 0.3474
vn -0.8387 0.4194 -0.3474
vn -0.3474 0.4194 -0.8387
vn 0.0000 -1.0000 -0.0000
usemtl None
s off
f 1/1/1 9/2/1 2/3/1
f 2/3/2 9/2/2 3/4/2
f 3/4/3 9/2/3 4/5/3
f 4/5/4 9/2/4 5/6/4
f 5/6/5 9/2/5 6/7/5
f 6/7/6 9/2/6 7/8/6
f 7/8/7 9/2/7 8/9/7
f 8/9/8 9/2/8 1/1/8
f 1/10/9 2/11/9 3/12/9 4/13/9 5/14/9 6/15/9 7/16/9 8/17/9
