# Blender v2.79 (sub 0) OBJ File: 'base-dos-furacoeszineos.blend'
# www.blender.org
mtllib base-dos-furacoeszineos.mtl
o Cone
v 0.593433 0.849451 -1.772775
v 0.029787 0.849451 -1.447354
v 0.029787 0.849451 -0.796512
v 0.593433 0.849451 -0.471090
v 0.593433 -1.150549 -1.121933
v 1.157079 0.849451 -0.796512
v 1.157079 0.849451 -1.447354
v 0.593433 1.204663 -1.772775
v 0.029787 1.204663 -1.447354
v 0.029787 1.204663 -0.796512
v 0.593433 1.204663 -0.471090
v 1.157079 1.204663 -0.796512
v 1.157079 1.204663 -1.447354
vt 0.144897 0.613502
vt 0.762130 0.805124
vt 0.109435 0.799074
vt 0.114334 0.999913
vt 0.715607 0.118748
vt 0.516366 0.192268
vt 0.352198 0.300107
vt 0.226269 0.443418
vt 0.037953 0.580788
vt 0.129916 0.382924
vt 0.000087 0.790583
vt 0.458934 0.088031
vt 0.669468 0.000087
vt 0.000087 0.999913
vt 0.274004 0.214807
vn 0.0000 -0.1494 -0.9887
vn 0.0000 -1.0000 0.0000
vn -0.8563 -0.1494 -0.4944
vn -0.8563 -0.1494 0.4944
vn 0.0000 -0.1494 0.9887
vn 0.8563 -0.1494 0.4944
vn 0.8563 -0.1494 -0.4944
vn 0.0000 0.0000 -1.0000
vn 0.8660 0.0000 -0.5000
vn -0.8660 0.0000 -0.5000
vn 0.0000 0.0000 1.0000
vn -0.8660 0.0000 0.5000
vn 0.8660 0.0000 0.5000
usemtl None
s 1
f 1/1/1 5/2/2 2/3/3
f 2/3/3 5/2/2 3/4/4
f 3/5/4 5/2/2 4/6/5
f 4/6/5 5/2/2 6/7/6
f 6/7/6 5/2/2 7/8/7
f 7/8/7 5/2/2 1/1/1
f 7/8/7 1/1/1 8/9/8 13/10/9
f 1/1/1 2/3/3 9/11/10 8/9/8
f 3/5/4 4/6/5 11/12/11 10/13/12
f 2/3/3 3/4/4 10/14/12 9/11/10
f 6/7/6 7/8/7 13/10/9 12/15/13
f 4/6/5 6/7/6 12/15/13 11/12/11
